<?xml version="1.0" encoding="UTF-8"?>
<!DOCTYPE svg PUBLIC "-//W3C//DTD SVG 1.0//EN" "http://www.w3.org/TR/2001/REC-SVG-20010904/DTD/svg10.dtd">
<!-- Creator: CorelDRAW 2018 -->
<svg xmlns="http://www.w3.org/2000/svg" xml:space="preserve" width="196px" height="205px" version="1.0" style="shape-rendering:geometricPrecision; text-rendering:geometricPrecision; image-rendering:optimizeQuality; fill-rule:evenodd; clip-rule:evenodd"
viewBox="0 0 139.48 145.34"
 xmlns:xlink="http://www.w3.org/1999/xlink">
 <defs>
  <style type="text/css">
   <![CDATA[
    .fil0 {fill:#212BB5}
    .fil1 {fill:#FF2626}
    .fil2 {fill:#373435;fill-rule:nonzero}
   ]]>
  </style>
 </defs>
 <g id="Layer_x0020_1">
  <metadata id="CorelCorpID_0Corel-Layer"/>
  <g id="_752113416">
   <path class="fil0" d="M0 89.69c14.4,56.71 88.93,77.13 130.22,27.7 -41.78,36.29 -97.72,22.1 -112.66,-27.7l-17.56 0zm0 -34.04c14.4,-56.7 88.93,-77.13 130.22,-27.7 -41.78,-36.29 -97.72,-22.09 -112.66,27.7l-17.56 0z"/>
   <path class="fil1" d="M139.48 89.69c-9.68,38.11 -70.88,60.68 -100.98,19.86 26.61,30.05 85.04,13.6 95.08,-19.86l5.9 0zm0 -34.04c-9.68,-38.1 -70.88,-60.68 -100.98,-19.86 26.61,-30.05 85.04,-13.6 95.08,19.86l5.9 0z"/>
   <polygon class="fil2" points="0.01,77.25 3.52,77.25 3.52,72.76 7.28,72.76 7.28,70.08 3.52,70.08 3.52,67.39 8.23,67.39 8.23,64.57 0.01,64.57 "/>
   <path id="1" class="fil2" d="M15.5 74.61c-1.69,0 -2.81,-1.33 -2.81,-3.64l0 -0.14c0,-2.31 1.07,-3.6 2.79,-3.6 1.72,0 2.81,1.33 2.81,3.58l0 0.14c0,2.27 -1.07,3.66 -2.79,3.66zm-0.07 2.86c3.93,0 6.5,-2.67 6.5,-6.57l0 -0.14c0,-3.94 -2.74,-6.37 -6.45,-6.37 -3.64,0 -6.43,2.59 -6.43,6.46l0 0.14c0,3.81 2.45,6.48 6.38,6.48z"/>
   <path id="2" class="fil2" d="M23.63 77.25l3.47 0 0 -4.54 0.82 0 2.47 4.54 3.67 0 -2.91 -5.25c1.28,-0.51 2.2,-1.53 2.2,-3.34l0 -0.07c0,-2.68 -1.77,-4.02 -4.96,-4.02l-4.76 0 0 12.68zm3.47 -6.9l0 -3.05 1.14 0c1.12,0 1.74,0.41 1.74,1.44l0 0.07c0,1.03 -0.58,1.54 -1.76,1.54l-1.12 0z"/>
   <polygon id="3" class="fil2" points="35.49,77.25 44.17,77.25 44.17,74.45 38.96,74.45 38.96,72.14 42.89,72.14 42.89,69.55 38.96,69.55 38.96,67.37 43.9,67.37 43.9,64.57 35.49,64.57 "/>
   <polygon id="4" class="fil2" points="45.97,77.25 49.5,77.25 49.5,64.57 45.97,64.57 "/>
   <path id="5" class="fil2" d="M57.63 77.47c3.93,0 5.96,-2.44 5.96,-5.66l0 -1.57 -5.72 0 0 2.54 2.28 0c-0.07,1.01 -0.72,1.92 -2.42,1.92 -2.11,0 -2.84,-1.6 -2.84,-3.66l0 -0.14c0,-2.29 1.04,-3.67 2.76,-3.67 1.29,0 2.02,0.62 2.19,1.81l3.46 0c-0.24,-3.3 -2.79,-4.67 -5.67,-4.67 -3.66,0 -6.38,2.61 -6.38,6.48l0 0.14c0,3.8 2.25,6.48 6.38,6.48z"/>
   <polygon id="6" class="fil2" points="65.29,77.25 68.35,77.25 68.35,69.29 72.79,77.25 76.16,77.25 76.16,64.57 73.12,64.57 73.12,71.72 69.22,64.57 65.29,64.57 "/>
   <polygon id="7" class="fil2" points="81.86,77.25 84.93,77.25 84.93,69.29 89.37,77.25 92.74,77.25 92.74,64.57 89.69,64.57 89.69,71.72 85.79,64.57 81.86,64.57 "/>
   <path id="8" class="fil2" d="M100.39 77.47c3.36,0 5.43,-1.73 5.43,-5.42l0 -7.48 -3.52 0 0 7.32c0,1.9 -0.46,2.72 -1.91,2.72 -1.48,0 -1.9,-0.87 -1.9,-2.66l0 -7.38 -3.49 0 0 7.54c0,3.55 1.96,5.36 5.39,5.36z"/>
   <path id="9" class="fil2" d="M108.09 77.25l3.47 0 0 -4.54 0.81 0 2.47 4.54 3.68 0 -2.91 -5.25c1.27,-0.51 2.19,-1.53 2.19,-3.34l0 -0.07c0,-2.68 -1.77,-4.02 -4.95,-4.02l-4.76 0 0 12.68zm3.47 -6.9l0 -3.05 1.14 0c1.12,0 1.73,0.41 1.73,1.44l0 0.07c0,1.03 -0.58,1.54 -1.75,1.54l-1.12 0z"/>
   <path id="10" class="fil2" d="M124.24 77.47c3.13,0 4.9,-1.9 4.9,-4.23 0,-2.75 -1.59,-3.58 -4.67,-3.94 -1.51,-0.21 -1.88,-0.53 -1.88,-1.24 0,-0.64 0.47,-1.08 1.41,-1.08 0.95,0 1.44,0.46 1.56,1.37l3.24 0c-0.22,-2.68 -1.88,-3.96 -4.8,-3.96 -2.91,0 -4.72,1.67 -4.72,3.96 0,2.55 1.16,3.62 4.6,4.04 1.46,0.23 1.92,0.44 1.92,1.23 0,0.74 -0.56,1.26 -1.56,1.26 -1.45,0 -1.84,-0.75 -1.93,-1.66l-3.32 0c0.11,2.76 1.84,4.25 5.25,4.25z"/>
   <polygon id="11" class="fil2" points="130.79,77.25 139.47,77.25 139.47,74.45 134.26,74.45 134.26,72.14 138.19,72.14 138.19,69.55 134.26,69.55 134.26,67.37 139.19,67.37 139.19,64.57 130.79,64.57 "/>
   <path id="12" class="fil2" d="M41.06 101.76c3.93,0 5.95,-2.43 5.95,-5.66l0 -1.56 -5.72 0 0 2.53 2.29 0c-0.07,1.01 -0.72,1.92 -2.42,1.92 -2.11,0 -2.84,-1.6 -2.84,-3.66l0 -0.14c0,-2.29 1.03,-3.67 2.75,-3.67 1.3,0 2.03,0.62 2.2,1.81l3.45 0c-0.24,-3.3 -2.79,-4.67 -5.66,-4.67 -3.66,0 -6.38,2.61 -6.38,6.48l0 0.14c0,3.8 2.24,6.48 6.38,6.48z"/>
   <polygon id="13" class="fil2" points="48.71,101.55 56.81,101.55 56.81,98.72 52.22,98.72 52.22,88.86 48.71,88.86 "/>
   <path id="14" class="fil2" d="M63.88 98.9c-1.69,0 -2.81,-1.33 -2.81,-3.64l0 -0.14c0,-2.31 1.07,-3.6 2.79,-3.6 1.72,0 2.81,1.33 2.81,3.58l0 0.15c0,2.27 -1.08,3.65 -2.79,3.65zm-0.07 2.86c3.93,0 6.5,-2.66 6.5,-6.57l0 -0.14c0,-3.94 -2.74,-6.37 -6.45,-6.37 -3.64,0 -6.43,2.59 -6.43,6.46l0 0.14c0,3.82 2.45,6.48 6.38,6.48z"/>
   <path id="15" class="fil2" d="M72.01 101.55l5.48 0c3.01,0 4.42,-1.27 4.42,-3.54l0 -0.07c0,-1.75 -0.93,-2.69 -2.43,-2.96 1.36,-0.37 2.06,-1.31 2.06,-2.73l0 -0.07c0,-1.97 -1.23,-3.32 -4.1,-3.32l-5.43 0 0 12.69zm3.4 -2.44l0 -2.99 1.35 0c1.22,0 1.72,0.49 1.72,1.45l0 0.07c0,0.94 -0.51,1.47 -1.62,1.47l-1.45 0zm0 -5.21l0 -2.63 1.33 0c1.06,0 1.5,0.39 1.5,1.26l0 0.07c0,0.91 -0.41,1.3 -1.5,1.3l-1.33 0z"/>
   <path id="16" class="fil2" d="M82.44 101.55l3.25 0 0.65 -2.37 4.03 0 0.65 2.37 3.69 0 -3.86 -12.69 -4.51 0 -3.9 12.69zm5.92 -9.75l1.33 4.88 -2.67 0 1.34 -4.88z"/>
   <polygon id="17" class="fil2" points="96.11,101.55 104.21,101.55 104.21,98.72 99.61,98.72 99.61,88.86 96.11,88.86 "/>
  </g>
 </g>
</svg>
