<?xml version="1.0" encoding="UTF-8"?>
<!DOCTYPE svg PUBLIC "-//W3C//DTD SVG 1.0//EN" "http://www.w3.org/TR/2001/REC-SVG-20010904/DTD/svg10.dtd">
<!-- Creator: CorelDRAW 2018 -->
<svg xmlns="http://www.w3.org/2000/svg" xml:space="preserve" width="94px" height="180px" version="1.0" style="shape-rendering:geometricPrecision; text-rendering:geometricPrecision; image-rendering:optimizeQuality; fill-rule:evenodd; clip-rule:evenodd"
viewBox="0 0 5.48 10.54"
 xmlns:xlink="http://www.w3.org/1999/xlink">
 <defs>
  <style type="text/css">
   <![CDATA[
    .fil0 {fill:#E2E2E9;fill-rule:nonzero}
   ]]>
  </style>
 </defs>
 <g id="Layer_x0020_1">
  <metadata id="CorelCorpID_0Corel-Layer"/>
  <path class="fil0" d="M5.48 0.08l0 1.67 -1 0c-0.39,0 -0.63,0.08 -0.75,0.25 -0.11,0.18 -0.17,0.39 -0.17,0.66l0 1.2 1.85 0 -0.24 1.87 -1.61 0 0 4.81 -1.94 0 0 -4.81 -1.62 0 0 -1.87 1.62 0 0 -1.38c0,-0.41 0.06,-0.76 0.18,-1.06 0.11,-0.31 0.28,-0.57 0.49,-0.78 0.21,-0.21 0.46,-0.37 0.76,-0.47 0.29,-0.12 0.62,-0.17 0.98,-0.17 0.34,0 0.65,0.01 0.91,0.03 0.27,0.02 0.45,0.03 0.54,0.05z"/>
 </g>
</svg>
