<?xml version="1.0" encoding="UTF-8"?>
<!DOCTYPE svg PUBLIC "-//W3C//DTD SVG 1.0//EN" "http://www.w3.org/TR/2001/REC-SVG-20010904/DTD/svg10.dtd">
<!-- Creator: CorelDRAW 2018 -->
<svg xmlns="http://www.w3.org/2000/svg" xml:space="preserve" width="177px" height="54px" version="1.0" style="shape-rendering:geometricPrecision; text-rendering:geometricPrecision; image-rendering:optimizeQuality; fill-rule:evenodd; clip-rule:evenodd"
viewBox="0 0 27.98 8.51"
 xmlns:xlink="http://www.w3.org/1999/xlink">
 <defs>
  <style type="text/css">
   <![CDATA[
    .fil0 {fill:#212BB5}
    .fil1 {fill:#FF2626}
    .fil2 {fill:#373435;fill-rule:nonzero}
    .fil3 {fill:#212BB5;fill-rule:nonzero}
    .fil4 {fill:#FF2626;fill-rule:nonzero}
   ]]>
  </style>
 </defs>
 <g id="Layer_x0020_1">
  <metadata id="CorelCorpID_0Corel-Layer"/>
  <g id="_628464248">
   <g>
    <path class="fil0" d="M0 5.25c0.84,3.32 5.21,4.52 7.62,1.62 -2.44,2.13 -5.72,1.3 -6.59,-1.62l-1.03 0zm0 -1.99c0.84,-3.32 5.21,-4.52 7.62,-1.62 -2.44,-2.13 -5.72,-1.3 -6.59,1.62l-1.03 0z"/>
    <path class="fil1" d="M8.17 5.25c-0.57,2.23 -4.15,3.55 -5.92,1.16 1.56,1.76 4.98,0.8 5.57,-1.16l0.35 0zm0 -1.99c-0.57,-2.23 -4.15,-3.55 -5.92,-1.16 1.56,-1.76 4.98,-0.8 5.57,1.16l0.35 0z"/>
    <polygon class="fil2" points="0,4.52 0.21,4.52 0.21,4.26 0.43,4.26 0.43,4.1 0.21,4.1 0.21,3.95 0.48,3.95 0.48,3.78 0,3.78 "/>
    <path id="1" class="fil2" d="M0.91 4.37c-0.1,0 -0.17,-0.08 -0.17,-0.21l0 -0.01c0,-0.14 0.07,-0.21 0.17,-0.21 0.1,0 0.16,0.07 0.16,0.21l0 0c0,0.14 -0.06,0.22 -0.16,0.22zm-0.01 0.17c0.23,0 0.38,-0.16 0.38,-0.39l0 -0.01c0,-0.23 -0.16,-0.37 -0.37,-0.37 -0.22,0 -0.38,0.15 -0.38,0.38l0 0.01c0,0.22 0.14,0.38 0.37,0.38z"/>
    <path id="2" class="fil2" d="M1.38 4.52l0.21 0 0 -0.26 0.04 0 0.15 0.26 0.21 0 -0.17 -0.3c0.08,-0.03 0.13,-0.09 0.13,-0.2l0 0c0,-0.16 -0.1,-0.24 -0.29,-0.24l-0.28 0 0 0.74zm0.21 -0.4l0 -0.18 0.06 0c0.07,0 0.11,0.02 0.11,0.08l0 0.01c0,0.06 -0.04,0.09 -0.11,0.09l-0.06 0z"/>
    <polygon id="3" class="fil2" points="2.08,4.52 2.59,4.52 2.59,4.36 2.28,4.36 2.28,4.22 2.51,4.22 2.51,4.07 2.28,4.07 2.28,3.94 2.57,3.94 2.57,3.78 2.08,3.78 "/>
    <polygon id="4" class="fil2" points="2.69,4.52 2.9,4.52 2.9,3.78 2.69,3.78 "/>
    <path id="5" class="fil2" d="M3.37 4.54c0.23,0 0.35,-0.15 0.35,-0.34l0 -0.09 -0.33 0 0 0.15 0.13 0c0,0.06 -0.04,0.11 -0.14,0.11 -0.12,0 -0.17,-0.09 -0.17,-0.21l0 -0.01c0,-0.13 0.06,-0.21 0.17,-0.21 0.07,0 0.11,0.03 0.12,0.1l0.21 0c-0.02,-0.19 -0.17,-0.27 -0.34,-0.27 -0.21,0 -0.37,0.15 -0.37,0.38l0 0.01c0,0.22 0.13,0.38 0.37,0.38z"/>
    <polygon id="6" class="fil2" points="3.82,4.52 4,4.52 4,4.06 4.26,4.52 4.46,4.52 4.46,3.78 4.28,3.78 4.28,4.2 4.05,3.78 3.82,3.78 "/>
    <polygon id="7" class="fil2" points="4.79,4.52 4.97,4.52 4.97,4.06 5.23,4.52 5.43,4.52 5.43,3.78 5.25,3.78 5.25,4.2 5.02,3.78 4.79,3.78 "/>
    <path id="8" class="fil2" d="M5.88 4.54c0.19,0 0.32,-0.11 0.32,-0.32l0 -0.44 -0.21 0 0 0.43c0,0.11 -0.03,0.16 -0.11,0.16 -0.09,0 -0.11,-0.05 -0.11,-0.16l0 -0.43 -0.21 0 0 0.44c0,0.21 0.12,0.32 0.32,0.32z"/>
    <path id="9" class="fil2" d="M6.33 4.52l0.2 0 0 -0.26 0.05 0 0.14 0.26 0.22 0 -0.17 -0.3c0.07,-0.03 0.13,-0.09 0.13,-0.2l0 0c0,-0.16 -0.11,-0.24 -0.29,-0.24l-0.28 0 0 0.74zm0.2 -0.4l0 -0.18 0.07 0c0.06,0 0.1,0.02 0.1,0.08l0 0.01c0,0.06 -0.03,0.09 -0.1,0.09l-0.07 0z"/>
    <path id="10" class="fil2" d="M7.27 4.54c0.19,0 0.29,-0.12 0.29,-0.25 0,-0.16 -0.09,-0.21 -0.27,-0.23 -0.09,-0.02 -0.11,-0.03 -0.11,-0.08 0,-0.03 0.02,-0.06 0.08,-0.06 0.06,0 0.08,0.03 0.09,0.08l0.19 0c-0.01,-0.16 -0.11,-0.23 -0.28,-0.23 -0.17,0 -0.28,0.1 -0.28,0.23 0,0.15 0.07,0.21 0.27,0.24 0.09,0.01 0.12,0.02 0.12,0.07 0,0.04 -0.04,0.07 -0.1,0.07 -0.08,0 -0.1,-0.04 -0.11,-0.09l-0.19 0c0,0.16 0.1,0.25 0.3,0.25z"/>
    <polygon id="11" class="fil2" points="7.66,4.52 8.17,4.52 8.17,4.36 7.86,4.36 7.86,4.22 8.09,4.22 8.09,4.07 7.86,4.07 7.86,3.94 8.15,3.94 8.15,3.78 7.66,3.78 "/>
    <path id="12" class="fil2" d="M2.4 5.96c0.23,0 0.35,-0.14 0.35,-0.33l0 -0.1 -0.33 0 0 0.15 0.13 0c0,0.06 -0.04,0.12 -0.14,0.12 -0.12,0 -0.17,-0.1 -0.17,-0.22l0 -0.01c0,-0.13 0.06,-0.21 0.16,-0.21 0.08,0 0.12,0.03 0.13,0.1l0.21 0c-0.02,-0.19 -0.17,-0.27 -0.34,-0.27 -0.21,0 -0.37,0.15 -0.37,0.38l0 0.01c0,0.22 0.13,0.38 0.37,0.38z"/>
    <polygon id="13" class="fil2" points="2.85,5.94 3.33,5.94 3.33,5.78 3.06,5.78 3.06,5.2 2.85,5.2 "/>
    <path id="14" class="fil2" d="M3.74 5.79c-0.1,0 -0.16,-0.08 -0.16,-0.21l0 -0.01c0,-0.14 0.06,-0.21 0.16,-0.21 0.1,0 0.16,0.08 0.16,0.21l0 0.01c0,0.13 -0.06,0.21 -0.16,0.21zm0 0.17c0.23,0 0.38,-0.16 0.38,-0.39l0 -0.01c0,-0.23 -0.16,-0.37 -0.38,-0.37 -0.21,0 -0.38,0.15 -0.38,0.38l0 0.01c0,0.22 0.15,0.38 0.38,0.38z"/>
    <path id="15" class="fil2" d="M4.22 5.94l0.32 0c0.17,0 0.26,-0.07 0.26,-0.2l0 -0.01c0,-0.1 -0.06,-0.15 -0.15,-0.17 0.08,-0.02 0.12,-0.08 0.12,-0.16l0 0c0,-0.12 -0.07,-0.2 -0.24,-0.2l-0.31 0 0 0.74zm0.2 -0.14l0 -0.17 0.07 0c0.08,0 0.1,0.03 0.1,0.08l0 0.01c0,0.05 -0.03,0.08 -0.09,0.08l-0.08 0zm0 -0.3l0 -0.16 0.07 0c0.06,0 0.09,0.03 0.09,0.08l0 0c0,0.05 -0.02,0.08 -0.09,0.08l-0.07 0z"/>
    <path id="16" class="fil2" d="M4.83 5.94l0.19 0 0.03 -0.13 0.24 0 0.04 0.13 0.21 0 -0.22 -0.74 -0.27 0 -0.22 0.74zm0.34 -0.57l0.08 0.29 -0.16 0 0.08 -0.29z"/>
    <polygon id="17" class="fil2" points="5.63,5.94 6.1,5.94 6.1,5.78 5.83,5.78 5.83,5.2 5.63,5.2 "/>
   </g>
   <polygon class="fil3" points="9.77,7.57 11.61,7.57 11.61,5.22 13.58,5.22 13.58,3.82 11.61,3.82 11.61,2.41 14.07,2.41 14.07,0.93 9.77,0.93 "/>
   <path id="1" class="fil3" d="M24.86 7.68c2.06,0 3.12,-1.27 3.12,-2.96l0 -0.82 -3 0 0 1.33 1.2 0c-0.04,0.53 -0.38,1 -1.27,1 -1.1,0 -1.49,-0.83 -1.49,-1.91l0 -0.07c0,-1.2 0.55,-1.93 1.45,-1.93 0.68,0 1.06,0.33 1.15,0.95l1.81 0c-0.13,-1.73 -1.46,-2.44 -2.97,-2.44 -1.92,0 -3.34,1.36 -3.34,3.39l0 0.07c0,1.99 1.17,3.39 3.34,3.39z"/>
   <polygon id="2" class="fil4" points="14.93,7.57 16.53,7.57 16.53,3.4 18.86,7.57 20.63,7.57 20.63,0.93 19.03,0.93 19.03,4.67 16.99,0.93 14.93,0.93 "/>
  </g>
 </g>
</svg>
