<?xml version="1.0" encoding="UTF-8"?>
<!DOCTYPE svg PUBLIC "-//W3C//DTD SVG 1.0//EN" "http://www.w3.org/TR/2001/REC-SVG-20010904/DTD/svg10.dtd">
<!-- Creator: CorelDRAW 2018 -->
<svg xmlns="http://www.w3.org/2000/svg" xml:space="preserve" width="69px" height="69px" version="1.0" style="shape-rendering:geometricPrecision; text-rendering:geometricPrecision; image-rendering:optimizeQuality; fill-rule:evenodd; clip-rule:evenodd"
viewBox="0 0 4.54 4.54"
 xmlns:xlink="http://www.w3.org/1999/xlink">
 <defs>
  <style type="text/css">
   <![CDATA[
    .fil0 {fill:#283552;fill-rule:nonzero}
   ]]>
  </style>
 </defs>
 <g id="Layer_x0020_1">
  <metadata id="CorelCorpID_0Corel-Layer"/>
  <path class="fil0" d="M2.27 0c-0.41,0 -0.79,0.1 -1.14,0.3 -0.35,0.21 -0.62,0.48 -0.83,0.83 -0.2,0.35 -0.3,0.73 -0.3,1.14 0,0.42 0.1,0.8 0.3,1.14 0.21,0.35 0.48,0.62 0.83,0.83 0.35,0.2 0.73,0.3 1.14,0.3 0.42,0 0.8,-0.1 1.14,-0.3 0.35,-0.21 0.62,-0.48 0.83,-0.83 0.2,-0.34 0.3,-0.72 0.3,-1.13 0,-0.41 -0.1,-0.79 -0.31,-1.15 -0.21,-0.35 -0.48,-0.62 -0.83,-0.83 -0.35,-0.2 -0.72,-0.3 -1.13,-0.3zm-0.58 3.39l0 -2.24 1.69 1.11 -1.69 1.13z"/>
 </g>
</svg>
