<?xml version="1.0" encoding="UTF-8"?>
<!DOCTYPE svg PUBLIC "-//W3C//DTD SVG 1.0//EN" "http://www.w3.org/TR/2001/REC-SVG-20010904/DTD/svg10.dtd">
<!-- Creator: CorelDRAW 2018 -->
<svg xmlns="http://www.w3.org/2000/svg" xml:space="preserve" width="124px" height="124px" version="1.0" style="shape-rendering:geometricPrecision; text-rendering:geometricPrecision; image-rendering:optimizeQuality; fill-rule:evenodd; clip-rule:evenodd"
viewBox="0 0 14.77 14.73"
 xmlns:xlink="http://www.w3.org/1999/xlink">
 <defs>
  <style type="text/css">
   <![CDATA[
    .fil0 {fill:#4E73DF;fill-rule:nonzero}
   ]]>
  </style>
 </defs>
 <g id="Layer_x0020_1">
  <metadata id="CorelCorpID_0Corel-Layer"/>
  <path class="fil0" d="M14.77 7.37c0,0.96 -0.18,1.86 -0.53,2.71 -0.33,0.85 -0.8,1.61 -1.39,2.26 -0.6,0.66 -1.3,1.2 -2.11,1.63 -0.82,0.41 -1.68,0.67 -2.61,0.76l0 -1.49c0.73,-0.1 1.41,-0.32 2.03,-0.66 0.64,-0.34 1.19,-0.77 1.65,-1.3 0.47,-0.52 0.83,-1.12 1.1,-1.78 0.26,-0.67 0.4,-1.38 0.4,-2.13 0,-0.75 -0.14,-1.45 -0.4,-2.12 -0.27,-0.67 -0.63,-1.27 -1.1,-1.79 -0.46,-0.52 -1.01,-0.96 -1.65,-1.31 -0.62,-0.33 -1.3,-0.55 -2.03,-0.66l0 -1.49c0.93,0.1 1.79,0.36 2.61,0.78 0.81,0.42 1.51,0.96 2.11,1.62 0.59,0.66 1.06,1.41 1.39,2.26 0.35,0.85 0.53,1.76 0.53,2.71zm-12.1 5.73l1.05 -1.04c0.41,0.31 0.87,0.57 1.36,0.77 0.49,0.2 1.01,0.34 1.56,0.41l0 1.49c-0.75,-0.07 -1.45,-0.25 -2.12,-0.53 -0.67,-0.28 -1.29,-0.65 -1.85,-1.1zm-1.18 -5.01c0.07,0.55 0.21,1.07 0.41,1.56 0.21,0.49 0.46,0.94 0.77,1.33l-1.04 1.08c-0.45,-0.56 -0.82,-1.17 -1.1,-1.84 -0.28,-0.66 -0.46,-1.37 -0.53,-2.13l1.49 0zm1.18 -4.37c-0.31,0.41 -0.56,0.87 -0.77,1.37 -0.2,0.5 -0.34,1.01 -0.41,1.55l-1.49 0c0.07,-0.75 0.25,-1.45 0.53,-2.12 0.28,-0.68 0.65,-1.29 1.1,-1.85l1.04 1.05zm3.97 -2.23c-0.54,0.07 -1.05,0.21 -1.55,0.41 -0.5,0.21 -0.96,0.46 -1.37,0.77l-1.05 -1.04c0.56,-0.45 1.17,-0.82 1.84,-1.1 0.66,-0.28 1.37,-0.46 2.13,-0.53l0 1.49zm1.49 4.24l2.19 1.64c-0.74,0.55 -1.48,1.11 -2.23,1.66 -0.74,0.56 -1.48,1.11 -2.22,1.67l2.26 -4.97z"/>
 </g>
</svg>
