<?xml version="1.0" encoding="UTF-8"?>
<!DOCTYPE svg PUBLIC "-//W3C//DTD SVG 1.0//EN" "http://www.w3.org/TR/2001/REC-SVG-20010904/DTD/svg10.dtd">
<!-- Creator: CorelDRAW 2018 -->
<svg xmlns="http://www.w3.org/2000/svg" xml:space="preserve" width="171px" height="139px" version="1.0" style="shape-rendering:geometricPrecision; text-rendering:geometricPrecision; image-rendering:optimizeQuality; fill-rule:evenodd; clip-rule:evenodd"
viewBox="0 0 27.33 22.2"
 xmlns:xlink="http://www.w3.org/1999/xlink">
 <defs>
  <style type="text/css">
   <![CDATA[
    .fil0 {fill:#E2E2E9;fill-rule:nonzero}
   ]]>
  </style>
 </defs>
 <g id="Layer_x0020_1">
  <metadata id="CorelCorpID_0Corel-Layer"/>
  <path class="fil0" d="M27.33 2.64c-0.39,0.56 -0.81,1.09 -1.29,1.58 -0.48,0.48 -0.99,0.93 -1.53,1.33 0.02,0.12 0.03,0.24 0.03,0.37 0,0.12 0,0.24 0,0.36 0,1.84 -0.36,3.71 -1.06,5.61 -0.69,1.88 -1.71,3.58 -3.05,5.11 -1.35,1.53 -3.01,2.77 -4.99,3.75 -1.99,0.97 -4.26,1.45 -6.83,1.45 -1.6,0 -3.12,-0.22 -4.58,-0.66 -1.45,-0.45 -2.8,-1.07 -4.03,-1.85 0.22,0.02 0.44,0.03 0.66,0.04 0.23,0.01 0.46,0.02 0.7,0.02 1.3,0 2.53,-0.21 3.72,-0.62 1.18,-0.42 2.26,-1.01 3.23,-1.78 -1.23,-0.02 -2.33,-0.39 -3.28,-1.12 -0.95,-0.73 -1.6,-1.65 -1.97,-2.76 0.18,0.04 0.36,0.06 0.53,0.07 0.17,0.01 0.35,0.02 0.53,0.02 0.26,0 0.52,-0.02 0.76,-0.04 0.24,-0.03 0.49,-0.08 0.73,-0.14 -1.3,-0.27 -2.37,-0.91 -3.22,-1.93 -0.85,-1.02 -1.27,-2.21 -1.27,-3.56l0 -0.06c0.37,0.2 0.76,0.36 1.18,0.48 0.43,0.12 0.87,0.2 1.34,0.22 -0.75,-0.51 -1.35,-1.17 -1.81,-1.99 -0.45,-0.82 -0.68,-1.72 -0.68,-2.69 0,-0.5 0.07,-0.99 0.2,-1.47 0.13,-0.47 0.32,-0.93 0.56,-1.35 0.68,0.85 1.45,1.62 2.3,2.31 0.85,0.7 1.77,1.31 2.75,1.82 0.98,0.5 2.02,0.9 3.11,1.18 1.09,0.3 2.22,0.49 3.39,0.54 -0.06,-0.2 -0.09,-0.4 -0.11,-0.62 -0.03,-0.21 -0.04,-0.43 -0.04,-0.65 0,-1.54 0.55,-2.86 1.64,-3.95 1.09,-1.11 2.42,-1.66 3.98,-1.66 0.78,0 1.53,0.16 2.24,0.49 0.71,0.32 1.31,0.75 1.82,1.3 0.65,-0.12 1.27,-0.3 1.86,-0.53 0.6,-0.23 1.17,-0.51 1.72,-0.84 -0.23,0.65 -0.55,1.24 -0.97,1.78 -0.43,0.54 -0.93,0.97 -1.52,1.32 0.57,-0.06 1.13,-0.17 1.67,-0.32 0.55,-0.15 1.07,-0.34 1.58,-0.56z"/>
 </g>
</svg>
