<?xml version="1.0" encoding="UTF-8"?>
<!DOCTYPE svg PUBLIC "-//W3C//DTD SVG 1.0//EN" "http://www.w3.org/TR/2001/REC-SVG-20010904/DTD/svg10.dtd">
<!-- Creator: CorelDRAW 2018 -->
<svg xmlns="http://www.w3.org/2000/svg" xml:space="preserve" width="59px" height="54px" version="1.0" style="shape-rendering:geometricPrecision; text-rendering:geometricPrecision; image-rendering:optimizeQuality; fill-rule:evenodd; clip-rule:evenodd"
viewBox="0 0 1.52 1.39"
 xmlns:xlink="http://www.w3.org/1999/xlink">
 <defs>
  <style type="text/css">
   <![CDATA[
    .fil2 {fill:#030C1F}
    .fil0 {fill:#212BB5}
    .fil1 {fill:#FF2626}
   ]]>
  </style>
 </defs>
 <g id="Layer_x0020_1">
  <metadata id="CorelCorpID_0Corel-Layer"/>
  <g id="_970504864">
   <path class="fil0" d="M0 0.86c0.14,0.54 0.85,0.74 1.25,0.26 -0.4,0.35 -0.94,0.22 -1.08,-0.26l-0.17 0zm0 -0.33c0.14,-0.54 0.85,-0.74 1.25,-0.26 -0.4,-0.35 -0.94,-0.21 -1.08,0.26l-0.17 0z"/>
   <path class="fil1" d="M1.34 0.86c-0.1,0.36 -0.68,0.58 -0.97,0.19 0.25,0.29 0.81,0.13 0.91,-0.19l0.06 0zm0 -0.33c-0.1,-0.36 -0.68,-0.58 -0.97,-0.19 0.25,-0.29 0.81,-0.13 0.91,0.19l0.06 0z"/>
   <path class="fil2" d="M1.23 0.65c0.01,0 0.02,0 0.02,0.01 0,0 0,0 0,0 0,0.01 -0.01,0.02 -0.01,0.02 -0.01,-0.01 -0.01,-0.03 -0.01,-0.03zm-0.74 0c0,0.03 0,0.07 0,0.11 0,0 0,0.01 0,0.01 0,0.03 0.01,0.02 0.03,0.02 0,0 0.02,0 0.02,-0.01 0,0 0,-0.01 0,-0.02 0,0 0,-0.01 0,-0.01l0 0c0,-0.05 0,-0.09 0,-0.13 0,-0.01 0,-0.02 -0.01,-0.02 -0.01,0 -0.02,0 -0.03,0 0,0 -0.01,0 -0.01,0.01 -0.01,0 0,0.01 0,0.02 0,0 0,0.01 0,0.02zm-0.41 -0.04c-0.02,-0.01 -0.03,-0.01 -0.05,-0.01 0,0 -0.02,0 -0.02,0 -0.01,0.01 -0.01,0.01 -0.01,0.01 0,0.02 0,0.03 0,0.04 0,0.05 0,0.09 0,0.13 0,0 0,0.01 0.01,0.01 0.01,0 0.03,0 0.04,0 0.01,0 0,-0.01 0,-0.01 0,-0.02 0.01,-0.04 0.01,-0.05 0,-0.01 0,-0.01 0,-0.01 0.01,0 0.02,0 0.02,-0.01 0.01,0 0.01,-0.01 0.01,-0.02 0,-0.02 -0.01,-0.01 -0.02,-0.01 -0.01,0 -0.01,0 -0.01,-0.01 0,0 0,-0.02 0,-0.02 0,-0.01 0.03,0.01 0.03,-0.01 0,-0.01 0,-0.02 0,-0.03 0,0 0,0 -0.01,0zm1.33 0.09c0,0 0,-0.01 0,-0.01 -0.01,-0.01 -0.01,-0.01 -0.01,-0.01 -0.02,-0.01 -0.02,0 -0.03,-0.01 0,0 0,0 0,-0.01 0,-0.01 0,-0.01 0.02,-0.01 0,0 0.01,0 0.02,-0.01 0,0 0,-0.02 0,-0.03 0,-0.01 -0.01,-0.01 -0.01,-0.01 -0.01,0 -0.02,0 -0.02,0 -0.01,0 -0.02,0 -0.03,0 -0.04,0.01 -0.04,0.03 -0.04,0.06 0,0.02 0,0.05 0.02,0.06 0.01,0 0.02,0 0.03,0 0,0 0,0.01 0,0.02 0,0.01 -0.02,0.01 -0.03,0.01 0,0 -0.01,0 -0.01,0 -0.01,0 -0.01,0.01 -0.01,0.01 0,0.01 0.01,0.02 0.01,0.02 0,0.01 0,0.01 0.01,0.01 0.01,0 0.04,0 0.06,0 0,0 0.01,-0.01 0.01,-0.01 0.01,-0.01 0.01,-0.03 0.01,-0.04 0,-0.01 0,-0.03 0,-0.04l0 0zm-0.94 0.06c0,-0.02 0,-0.01 -0.02,-0.01 0,0 -0.01,0 -0.02,0 0,-0.01 -0.01,-0.01 0,-0.02 0,-0.01 0,-0.01 0.01,-0.01 0.01,0 0.02,0 0.03,0l0 0c0,-0.01 0,-0.02 0,-0.02 0,-0.01 0,-0.02 0,-0.02 -0.01,-0.01 -0.03,0 -0.04,-0.01 0,0 0,-0.01 0,-0.01 0,-0.01 0.01,-0.01 0.02,-0.01 0,0 0.01,0 0.02,0l0 0c0,-0.01 0,-0.02 0,-0.03 0,0 0,-0.01 0,-0.01 0,-0.01 -0.01,-0.01 -0.01,-0.01 -0.01,0 -0.01,0.01 -0.02,0 -0.01,0 -0.04,0 -0.04,0.01 -0.02,0 -0.02,0.01 -0.03,0.03 0,0.01 0,0.02 0,0.03 0,0.02 0,0.08 0.01,0.09 0,0.03 0.02,0.03 0.04,0.03 0.01,0 0.04,0 0.04,0 0.01,0 0.01,-0.01 0.01,-0.02 0,0 0,-0.01 0,-0.01zm0.15 -0.06c0,0.01 0,0.02 0,0.03l0 0c0,0 0,0.02 -0.01,0.02 -0.01,-0.01 0,-0.03 0,-0.05 0,-0.01 -0.01,-0.04 0,-0.05 0.01,0 0.04,0 0.05,0 0.01,0 0.02,0 0.02,-0.01 0,0 0,-0.03 0,-0.03 -0.01,-0.01 -0.02,-0.01 -0.03,-0.01 -0.01,0 -0.02,0 -0.03,0 -0.01,0 -0.04,0 -0.04,0.01 -0.02,0 -0.02,0.01 -0.02,0.02 -0.01,0.01 0,0.03 0,0.05 0,0.03 0,0.05 0,0.08 0,0.02 0.01,0.03 0.03,0.03 0.01,0 0.03,0 0.04,0 0.01,0 0.03,0 0.04,-0.01 0.01,-0.01 0.01,-0.04 0.01,-0.06 0,-0.01 0,-0.01 0,-0.02 0,-0.01 0,-0.02 -0.02,-0.02 0,0 -0.03,0 -0.03,0 -0.01,0 -0.01,0.01 -0.01,0.02 0,0 0,0 0,0zm-0.47 -0.05c0.01,0 0.01,0 0.02,0 0,0.02 0,0.04 0,0.06 0,0 0,0.01 0,0.02 0,0 0,0.02 -0.01,0.02 -0.01,-0.01 -0.01,-0.02 -0.01,-0.03 0,-0.02 0,-0.06 0,-0.07zm0.07 0.08c0,0 0,-0.01 0,-0.02l0 0c0,-0.01 0,-0.01 0,-0.02 0,-0.01 0,-0.03 0,-0.05 0,-0.01 0,-0.01 -0.01,-0.02 -0.01,-0.01 -0.01,-0.01 -0.03,-0.01 0,-0.01 0,-0.01 0,-0.01 -0.02,0 -0.04,0 -0.05,0.01 -0.01,0 -0.02,0 -0.02,0.01 0,0.01 -0.01,0.01 -0.01,0.02 0,0.01 0,0.02 0,0.03 0,0.01 0,0.02 0,0.03 0,0.01 0,0.02 0,0.02 0,0.02 0,0.03 0,0.04 0.01,0.02 0.03,0.03 0.05,0.03 0.01,0 0.02,0 0.04,0 0.01,-0.01 0.02,-0.01 0.03,-0.03 0,-0.01 0,-0.02 0,-0.02l0 -0.01zm0.9 -0.13c-0.01,0 -0.01,0.01 -0.01,0.02 0,0.01 0,0.02 0,0.04 0,0.01 0,0.02 0,0.04 0,0.01 0,0.04 0,0.04 -0.01,0.01 -0.02,0 -0.02,0 0,-0.01 0,-0.03 0,-0.04 0,-0.02 0,-0.04 0,-0.06 0,0 0,-0.01 0,-0.01 0,-0.03 -0.01,-0.03 -0.03,-0.03 -0.02,0 -0.02,0 -0.02,0.03 0,0.01 0,0.03 0,0.04 0,0.02 0,0.05 0,0.07 0,0 0,0.01 0,0.01l0 0c0,0.01 0,0.01 0,0.02 0.01,0.01 0.01,0.02 0.02,0.02 0.02,0 0.03,0 0.04,0 0.01,0 0.04,0 0.05,-0.01 0.01,0 0.01,-0.01 0.01,-0.01 0.01,-0.03 0,-0.06 0,-0.08 0,-0.02 0,-0.04 0,-0.06 0,0 0,-0.01 0,-0.02 0,-0.01 0,-0.01 -0.01,-0.01 -0.01,0 -0.02,0 -0.03,0zm-0.1 0.04c0,-0.01 0,-0.02 -0.01,-0.03 -0.01,-0.01 -0.01,-0.01 -0.02,-0.01 -0.01,0 -0.02,0 -0.02,0.01 -0.01,0 -0.01,0.01 -0.02,0 0,0 0,0 -0.01,-0.01 -0.01,0 -0.01,0 -0.01,0 -0.01,0 -0.02,0 -0.02,0l-0.01 0c0,0 0,0.01 0,0.01 0,0 0,0.01 0,0.01 0,0 0,0.02 0,0.03 0,0.04 0,0.09 0,0.13 0,0 0,0.01 0.01,0.01 0,0 0.01,0 0.02,0 0.03,0 0.02,0 0.02,-0.03 0,-0.01 0,-0.02 0,-0.03 0,-0.01 0,-0.01 0,-0.02 0,-0.02 0,-0.03 0.01,-0.05 0,-0.01 0,-0.01 0,-0.01 0.01,0 0.01,0.01 0.01,0.01 0,0.01 0,0.01 0,0.02 0,0.02 0,0.05 0,0.08 0,0.01 -0.01,0.03 0.02,0.03 0,0 0.02,0 0.03,0 0,-0.01 0,-0.01 0,-0.02 0,-0.01 0,-0.02 0,-0.03 0,-0.04 0,-0.07 0,-0.1zm-0.26 -0.03c-0.01,0 -0.01,0 -0.01,0.01 -0.01,-0.01 -0.01,-0.01 -0.01,-0.01 0,-0.01 0,-0.01 -0.01,-0.01l0 0c-0.01,0 -0.01,0.01 -0.02,0l-0.01 0c-0.01,0 -0.01,0.01 -0.01,0.01 0,0 0,0.01 0,0.01 0,0.01 0,0.02 0,0.02 0,0.05 0,0.09 0,0.13 0,0.03 0.01,0.02 0.03,0.02 0.02,0 0.02,0 0.03,-0.01 0,-0.01 0,-0.01 0,-0.02 0,-0.01 0,-0.02 0,-0.03 0,0 0,0 0,0l0 0c0,-0.02 0,-0.04 0,-0.07 0,0 0,-0.01 0,-0.01 0.01,0 0.01,0.01 0.01,0.02 0,0 0,0.01 0,0.02 0,0.02 0,0.05 0,0.07 0,0.01 0,0.01 0,0.03 0.01,0 0.02,0 0.03,0 0,0 0.02,0 0.02,0 0.01,0 0.01,-0.01 0,-0.02 0,-0.02 0,-0.05 0,-0.07 0,-0.02 0.01,-0.04 0,-0.07 0,-0.01 0,-0.01 -0.01,-0.02 0,-0.01 -0.01,-0.01 -0.01,-0.01 -0.01,0 -0.02,0 -0.03,0.01zm-0.47 0.04c0,0 0.01,0 0.01,0 0,0 0,0.01 0,0.01 0,0 0,0.01 0,0.01 0,0.01 -0.01,0.01 -0.01,0 0,0 0,-0.02 0,-0.02 0,0 0,0 0,0zm-0.04 -0.05c-0.01,0.01 -0.01,0.01 -0.01,0.02 0,0.03 0,0.06 0,0.09 0,0.01 0,0.01 0,0.01 0,0.01 0,0.02 0,0.03 0,0.01 0,0.01 0,0.01 0,0.01 0,0.02 0,0.03 0.01,0 0.02,0 0.03,0 0.02,0 0.02,0 0.02,-0.02 0,-0.01 0,-0.02 0,-0.02 0,-0.01 0,-0.01 0,-0.02l0 0c0,-0.01 0,-0.01 0.01,-0.01 0.01,0 0,0.01 0,0.01 0,0.01 0,0.02 0,0.03 0,0.01 0.01,0.03 0.01,0.03 0.01,0 0.03,0 0.04,0 0.01,0 0.01,0 0.01,-0.01 0,0 0,-0.01 0,-0.01 0,-0.02 0,-0.03 0,-0.05 0,0 0,-0.01 -0.01,-0.01 0,-0.01 0,-0.01 0,-0.01 -0.01,-0.01 0,-0.01 0,-0.02 0.01,-0.01 0.01,-0.01 0.01,-0.03l0 0c0,-0.01 0,-0.02 -0.01,-0.04 -0.01,-0.01 -0.01,-0.01 -0.03,-0.01 -0.02,0 -0.04,0 -0.06,0 0,0 -0.01,0 -0.01,0zm1.27 0.16c0,-0.02 0,-0.01 -0.02,-0.01 0,0 -0.01,0 -0.02,0 0,-0.01 -0.01,-0.01 0,-0.02 0,-0.01 0,-0.01 0.01,-0.01 0.01,0 0.02,0 0.03,0l0 0c0,-0.01 0,-0.02 0,-0.02 0,-0.01 0,-0.02 0,-0.02 -0.01,-0.01 -0.03,0 -0.04,-0.01 0,0 0,-0.01 0,-0.01 0,-0.01 0.01,-0.01 0.02,-0.01 0,0 0.01,0 0.02,0l0 0c0,-0.01 0,-0.02 0,-0.03 0,0 0,-0.01 0,-0.01 0,-0.01 -0.01,-0.01 -0.01,-0.01 -0.01,0 -0.01,0.01 -0.02,0 -0.01,0 -0.04,0 -0.04,0.01 -0.02,0 -0.02,0.01 -0.03,0.03 0,0.01 0,0.02 0,0.03 0,0.02 0,0.08 0.01,0.09 0,0.03 0.02,0.03 0.04,0.03 0.01,0 0.04,0 0.04,0 0.01,0 0.01,-0.01 0.01,-0.02 0,0 0,-0.01 0,-0.01zm-0.33 -0.16c-0.01,0.01 -0.01,0.01 -0.01,0.02 0,0.03 0,0.06 0,0.09 0,0.01 0,0.01 0,0.01 0,0.01 0,0.02 0,0.03 0,0.01 0,0.01 0,0.01 0,0.01 0,0.02 0,0.03 0.01,0 0.02,0 0.03,0 0.02,0 0.02,0 0.02,-0.02 0,-0.01 0,-0.02 0,-0.02 0,-0.01 0,-0.01 0,-0.02l0 0c0,-0.01 0,-0.01 0.01,-0.01 0.01,0 0.01,0.01 0.01,0.01 0,0.01 0,0.02 0,0.03 0,0.01 0,0.03 0.01,0.03 0.01,0 0.02,0 0.03,0 0.01,0 0.01,0 0.01,-0.01 0,0 0,-0.01 0,-0.01 0,-0.02 0,-0.03 0,-0.05 0,0 0,-0.01 0,-0.01 -0.01,-0.01 -0.01,-0.01 -0.01,-0.01 -0.01,-0.01 0,-0.01 0,-0.01 0.01,-0.01 0.01,-0.02 0.01,-0.03 0,0 0,-0.01 0,-0.02 0,-0.01 0,-0.01 -0.01,-0.03 0,-0.01 -0.01,-0.01 -0.02,-0.01 -0.02,0 -0.05,0 -0.07,0 0,0 -0.01,0 -0.01,0z"/>
  </g>
 </g>
</svg>
