<?xml version="1.0" encoding="UTF-8"?>
<!DOCTYPE svg PUBLIC "-//W3C//DTD SVG 1.0//EN" "http://www.w3.org/TR/2001/REC-SVG-20010904/DTD/svg10.dtd">
<!-- Creator: CorelDRAW 2018 -->
<svg xmlns="http://www.w3.org/2000/svg" xml:space="preserve" width="71px" height="79px" version="1.0" style="shape-rendering:geometricPrecision; text-rendering:geometricPrecision; image-rendering:optimizeQuality; fill-rule:evenodd; clip-rule:evenodd"
viewBox="0 0 4270.76 4791.72"
 xmlns:xlink="http://www.w3.org/1999/xlink">
 <defs>
  <style type="text/css">
   <![CDATA[
    .fil0 {fill:#283552;fill-rule:nonzero}
   ]]>
  </style>
 </defs>
 <g id="Layer_x0020_1">
  <metadata id="CorelCorpID_0Corel-Layer"/>
  <path class="fil0" d="M801.89 4261l3468.87 0 0 530.72 -3468.87 0c-222.27,0 -411.6,-78.2 -568.07,-233.82 -155.62,-156.47 -233.82,-342.24 -233.82,-557.38l0 -3209.33c0,-215.13 78.2,-400.9 233.82,-557.37 156.47,-155.62 345.8,-233.82 568.07,-233.82l3468.87 0 0 3729.35 -3468.87 0c-76.49,0 -140.51,25.81 -192.9,78.27 -51.61,51.54 -78.27,114.63 -78.27,187.56 0,72.92 26.66,135.15 78.27,187.62 52.39,51.54 116.41,78.2 192.9,78.2zm531.64 -927.21l0 -2938.23c0,-34.64 -12.47,-65.72 -36.5,-93.31 -24.88,-28.44 -55.96,-41.77 -94.24,-41.77 -38.2,0 -69.36,13.33 -93.31,41.77 -24.88,27.59 -36.5,58.67 -36.5,93.31l0 2938.23c0,34.65 11.62,64.02 36.5,87.97 23.95,24.88 55.11,36.5 93.31,36.5 38.28,0 69.36,-11.62 94.24,-36.5 24.03,-23.95 36.5,-53.32 36.5,-87.97z"/>
 </g>
</svg>
