<?xml version="1.0" encoding="UTF-8"?>
<!DOCTYPE svg PUBLIC "-//W3C//DTD SVG 1.0//EN" "http://www.w3.org/TR/2001/REC-SVG-20010904/DTD/svg10.dtd">
<!-- Creator: CorelDRAW 2018 -->
<svg xmlns="http://www.w3.org/2000/svg" xml:space="preserve" width="174px" height="174px" version="1.0" style="shape-rendering:geometricPrecision; text-rendering:geometricPrecision; image-rendering:optimizeQuality; fill-rule:evenodd; clip-rule:evenodd"
viewBox="0 0 41.32 41.32"
 xmlns:xlink="http://www.w3.org/1999/xlink">
 <defs>
  <style type="text/css">
   <![CDATA[
    .fil0 {fill:#E2E2E9;fill-rule:nonzero}
   ]]>
  </style>
 </defs>
 <g id="Layer_x0020_1">
  <metadata id="CorelCorpID_0Corel-Layer"/>
  <path class="fil0" d="M15.7 11.92l0.54 -0.54c0.55,-0.6 0.8,-1.1 0.77,-1.49 -0.03,-0.39 -0.35,-0.88 -0.94,-1.48l-6.95 -7.03c-0.77,-0.78 -1.31,-1.2 -1.62,-1.26 -0.41,-0.12 -0.98,0.18 -1.7,0.9l-0.54 0.45 10.44 10.45zm-1.16 0.99l-10.19 -10.18c-1.32,1.81 -2.34,3.6 -3.06,5.4 -1.14,2.77 -1.29,5.08 -0.45,6.94 0.54,1.2 1.05,2.19 1.54,2.98 0.29,0.48 0.77,1.11 1.43,1.89 0.66,0.78 1.2,1.47 1.62,2.07 3.49,3.96 8.11,8.61 13.88,13.96 0.6,0.48 1.29,1.06 2.07,1.76 0.78,0.69 1.41,1.18 1.89,1.48 0.78,0.48 1.74,0.96 2.88,1.44 1.81,0.67 4.11,0.46 6.94,-0.63 1.8,-0.72 3.63,-1.71 5.49,-2.97l-10.09 -10.18 -2.79 3.69c-0.36,0.55 -0.96,0.61 -1.8,0.19 -0.78,-0.3 -1.56,-0.84 -2.34,-1.62l-1.89 -1.99c-3.9,-3.9 -6.34,-6.39 -7.3,-7.48 -0.78,-0.77 -1.35,-1.53 -1.71,-2.24 -0.36,-0.91 -0.3,-1.54 0.18,-1.9l3.7 -2.61zm25.39 23.15l0.46 -0.45c0.66,-0.66 0.93,-1.23 0.8,-1.71 -0.11,-0.3 -0.57,-0.81 -1.34,-1.53l-6.94 -6.94c-0.66,-0.6 -1.17,-0.93 -1.53,-0.99 -0.36,-0.06 -0.84,0.18 -1.45,0.72l-0.44 0.45 10.44 10.45z"/>
 </g>
</svg>
