<?xml version="1.0" encoding="UTF-8"?>
<!DOCTYPE svg PUBLIC "-//W3C//DTD SVG 1.0//EN" "http://www.w3.org/TR/2001/REC-SVG-20010904/DTD/svg10.dtd">
<!-- Creator: CorelDRAW 2018 -->
<svg xmlns="http://www.w3.org/2000/svg" xml:space="preserve" width="194px" height="194px" version="1.0" style="shape-rendering:geometricPrecision; text-rendering:geometricPrecision; image-rendering:optimizeQuality; fill-rule:evenodd; clip-rule:evenodd"
viewBox="0 0 100.39 100.36"
 xmlns:xlink="http://www.w3.org/1999/xlink">
 <defs>
  <style type="text/css">
   <![CDATA[
    .fil0 {fill:#E2E2E9;fill-rule:nonzero}
   ]]>
  </style>
 </defs>
 <g id="Layer_x0020_1">
  <metadata id="CorelCorpID_0Corel-Layer"/>
  <path class="fil0" d="M98.78 0.59c0.59,0.45 1.03,0.98 1.28,1.62 0.26,0.62 0.33,1.29 0.2,2l-14.3 86.04c-0.07,0.52 -0.27,1.01 -0.59,1.43 -0.33,0.43 -0.72,0.77 -1.19,1.03 -0.25,0.19 -0.53,0.32 -0.83,0.39 -0.29,0.06 -0.61,0.1 -0.92,0.1 -0.2,0 -0.42,-0.04 -0.64,-0.1 -0.23,-0.07 -0.48,-0.14 -0.73,-0.2l-25.29 -10.39 -13.62 16.58c-0.33,0.38 -0.74,0.7 -1.24,0.92 -0.48,0.23 -0.98,0.35 -1.52,0.35 -0.18,0 -0.38,-0.02 -0.58,-0.05 -0.19,-0.04 -0.39,-0.09 -0.59,-0.15 -0.72,-0.27 -1.29,-0.71 -1.71,-1.33 -0.43,-0.61 -0.63,-1.28 -0.63,-2l0 -19.61 48.3 -59.29 -59.78 51.85 -22.14 -9.11c-0.65,-0.27 -1.17,-0.67 -1.57,-1.24 -0.39,-0.55 -0.62,-1.16 -0.69,-1.81 0,-0.72 0.15,-1.37 0.43,-1.96 0.31,-0.58 0.74,-1.05 1.33,-1.37l93.21 -53.8c0.25,-0.14 0.55,-0.26 0.89,-0.36 0.32,-0.08 0.62,-0.13 0.87,-0.13 0.4,0 0.77,0.05 1.14,0.13 0.35,0.1 0.66,0.25 0.91,0.46z"/>
 </g>
</svg>
