<?xml version="1.0" encoding="UTF-8"?>
<!DOCTYPE svg PUBLIC "-//W3C//DTD SVG 1.0//EN" "http://www.w3.org/TR/2001/REC-SVG-20010904/DTD/svg10.dtd">
<!-- Creator: CorelDRAW 2018 -->
<svg xmlns="http://www.w3.org/2000/svg" xml:space="preserve" width="180px" height="180px" version="1.0" style="shape-rendering:geometricPrecision; text-rendering:geometricPrecision; image-rendering:optimizeQuality; fill-rule:evenodd; clip-rule:evenodd"
viewBox="0 0 16.55 16.55"
 xmlns:xlink="http://www.w3.org/1999/xlink">
 <defs>
  <style type="text/css">
   <![CDATA[
    .fil0 {fill:#D1D3E2;fill-rule:nonzero}
   ]]>
  </style>
 </defs>
 <g id="Layer_x0020_1">
  <metadata id="CorelCorpID_0Corel-Layer"/>
  <path class="fil0" d="M8.28 14.26c1.02,0 1.97,-0.25 2.84,-0.74 0.87,-0.49 1.58,-1.14 2.13,-1.94 -0.02,-0.4 -0.2,-0.77 -0.57,-1.09 -0.36,-0.31 -0.8,-0.58 -1.32,-0.8 -0.52,-0.22 -1.06,-0.38 -1.63,-0.5 -0.55,-0.12 -1.04,-0.18 -1.45,-0.18 -0.42,0 -0.91,0.06 -1.48,0.18 -0.57,0.12 -1.11,0.28 -1.62,0.5 -0.52,0.22 -0.95,0.49 -1.31,0.8 -0.37,0.32 -0.55,0.69 -0.57,1.09 0.55,0.8 1.25,1.45 2.12,1.94 0.87,0.49 1.82,0.74 2.86,0.74zm0 -11.77c-0.68,0 -1.26,0.24 -1.75,0.74 -0.5,0.49 -0.74,1.07 -0.74,1.74 0,0.69 0.24,1.28 0.73,1.76 0.48,0.49 1.07,0.73 1.76,0.73 0.67,0 1.25,-0.24 1.74,-0.73 0.5,-0.48 0.74,-1.07 0.74,-1.76 0,-0.67 -0.24,-1.25 -0.73,-1.74 -0.48,-0.5 -1.07,-0.74 -1.75,-0.74zm0 -2.49c1.14,0 2.21,0.22 3.22,0.66 1.01,0.43 1.89,1.02 2.63,1.77 0.75,0.75 1.34,1.62 1.78,2.62 0.43,1.01 0.64,2.08 0.64,3.22 0,1.16 -0.21,2.23 -0.64,3.23 -0.44,1.01 -1.03,1.89 -1.78,2.64 -0.74,0.75 -1.62,1.34 -2.63,1.77 -1,0.43 -2.07,0.64 -3.22,0.64 -1.15,0 -2.22,-0.21 -3.23,-0.64 -1.01,-0.43 -1.89,-1.02 -2.63,-1.77 -0.75,-0.75 -1.34,-1.63 -1.78,-2.64 -0.43,-1 -0.64,-2.07 -0.64,-3.23 0,-1.14 0.21,-2.21 0.64,-3.22 0.44,-1 1.03,-1.87 1.78,-2.62 0.74,-0.75 1.62,-1.34 2.63,-1.77 1,-0.44 2.07,-0.66 3.23,-0.66z"/>
 </g>
</svg>
